<svg xmlns="http://www.w3.org/2000/svg" width="512" height="512" viewBox="0 0 512 512">
<g>
<path d="M 317.30 402.09 L 312.51 404.27 L 194.50 404.56 C129.60,404.71 73.12,404.48 69.00,404.04 C49.82,402.02 31.64,390.16 20.16,372.20 C11.91,359.28 7.26,341.02 9.06,328.50 C11.61,310.67 16.44,299.73 27.12,287.60 C38.79,274.35 56.57,265.39 73.46,264.27 C82.11,263.70 82.57,263.54 86.46,259.90 L 90.50 256.13 L 90.28 247.31 C90.01,236.26 91.44,224.64 94.23,215.18 C97.84,202.98 103.70,199.82 112.29,205.45 C116.92,208.49 117.39,212.86 114.46,225.50 C113.70,228.80 112.77,235.62 112.40,240.64 C111.79,248.90 112.00,250.67 114.50,258.81 C117.59,268.89 117.43,270.86 113.08,276.10 C109.85,280.00 105.58,281.30 92.00,282.49 C82.41,283.34 73.72,287.95 69.37,294.49 C65.15,300.85 60.04,316.80 60.02,323.69 C60.00,329.91 62.21,339.96 64.98,346.23 C70.08,357.74 83.79,366.93 102.26,371.21 C111.31,373.30 113.53,373.35 211.00,373.69 C300.42,374.00 310.94,374.20 314.83,375.68 C320.81,377.96 324.00,382.82 324.00,389.67 C324.00,397.34 322.79,399.59 317.30,402.09 ZM 130.62 512.00 L 61.56 512.00 C102.34,512.00 122.91,511.66 122.50,511.00 C122.16,510.45 121.34,510.00 120.68,510.00 C118.61,510.00 112.13,503.62 111.53,501.00 C111.21,499.62 110.80,488.38 110.62,476.00 C110.26,451.87 110.53,450.07 115.34,444.36 C118.40,440.74 124.07,439.45 130.45,440.95 C134.89,441.99 137.03,444.23 140.56,451.50 C142.86,456.25 142.98,457.43 142.95,475.00 C142.90,499.62 142.54,501.29 135.91,507.25 L 130.62 512.00 ZM 58.75 480.03 C53.29,482.51 51.37,482.46 46.56,479.73 C40.04,476.04 38.50,472.27 38.50,460.00 C38.50,450.61 38.75,449.16 40.83,446.23 C43.93,441.89 47.88,439.99 53.70,440.05 C64.24,440.15 69.96,446.47 69.98,458.00 C69.99,466.32 68.65,471.08 65.50,473.81 C64.13,475.01 63.00,476.46 63.00,477.04 C63.00,477.62 61.09,478.97 58.75,480.03 Z" fill="rgb(111,242,249)"/>
<path d="M 317.30 402.09 C322.79,399.59 324.00,397.34 324.00,389.67 C324.00,382.82 320.81,377.96 314.83,375.68 C310.94,374.20 300.42,374.00 211.00,373.69 C113.53,373.35 111.31,373.30 102.26,371.21 C83.79,366.93 70.08,357.74 64.98,346.23 C62.21,339.96 60.00,329.91 60.02,323.69 C60.04,316.80 65.15,300.85 69.37,294.49 C73.72,287.95 82.41,283.34 92.00,282.49 C105.58,281.30 109.85,280.00 113.08,276.10 C117.43,270.86 117.59,268.89 114.50,258.81 C112.00,250.67 111.79,248.90 112.40,240.64 C112.77,235.62 113.70,228.80 114.46,225.50 C117.39,212.86 116.92,208.49 112.29,205.45 C103.70,199.82 97.84,202.98 94.23,215.18 C93.04,219.21 92.10,223.64 91.43,228.25 C91.68,225.52 91.97,223.06 92.27,221.23 C96.57,195.09 117.69,169.15 144.68,156.82 C156.56,151.40 162.70,150.31 179.73,150.60 C188.11,150.74 195.41,151.14 195.95,151.47 C196.50,151.81 200.44,152.48 204.72,152.98 C211.99,153.82 223.08,157.44 223.83,159.21 C224.02,159.65 224.54,160.00 225.01,160.00 C226.30,160.00 239.07,168.65 243.00,172.18 C248.96,177.55 259.58,189.92 262.00,194.32 C266.66,202.80 269.00,208.04 269.00,209.99 C269.00,212.65 275.22,219.44 279.15,221.06 C281.65,222.10 283.67,222.12 289.16,221.18 C297.50,219.75 304.53,219.68 310.24,220.96 C312.58,221.49 317.20,222.46 320.50,223.12 C323.80,223.77 327.90,225.14 329.62,226.16 C331.33,227.17 333.86,228.00 335.24,228.00 C337.95,228.00 347.00,232.63 347.00,234.02 C347.00,234.48 348.01,235.18 349.25,235.57 C354.18,237.11 362.28,243.89 372.11,254.71 C376.22,259.22 384.00,272.08 384.00,274.35 C384.00,275.18 385.59,278.90 387.53,282.63 C395.45,297.82 395.96,320.16 388.87,341.50 C378.99,371.25 355.75,393.58 325.93,401.99 C321.44,403.25 312.96,404.45 304.50,405.02 C287.01,406.19 78.67,406.07 70.53,404.89 C64.67,404.03 59.00,402.47 53.62,400.26 C58.60,402.20 63.76,403.49 69.00,404.04 C73.12,404.48 129.60,404.71 194.50,404.56 L 312.51 404.27 ZM 283.28 506.95 C279.70,508.63 276.71,509.94 276.64,509.86 C276.56,509.79 275.38,509.54 274.00,509.32 C269.01,508.50 266.00,506.70 262.54,502.49 C254.46,492.62 255.02,483.81 264.26,475.31 C271.40,468.76 277.77,468.42 286.42,474.16 C289.70,476.33 291.00,477.86 291.00,479.54 C291.00,480.84 292.00,482.59 293.25,483.46 C295.10,484.76 295.50,485.98 295.50,490.35 C295.50,498.00 291.86,502.94 283.28,506.95 ZM 209.50 478.90 C204.54,480.25 201.40,480.19 197.39,478.67 C193.81,477.33 187.71,472.19 186.10,469.18 C184.70,466.57 184.68,457.98 186.06,454.32 C188.37,448.22 196.86,442.06 203.29,441.82 C209.71,441.57 219.00,446.14 219.00,449.53 C219.00,450.17 220.16,452.88 221.58,455.55 C224.12,460.33 224.13,460.46 222.53,465.53 C220.56,471.80 215.12,477.38 209.50,478.90 ZM 356.95 475.64 C351.78,478.40 344.53,478.74 341.50,476.37 C340.40,475.51 338.25,474.35 336.71,473.79 C330.28,471.46 327.53,457.73 331.81,449.35 C334.87,443.38 339.99,440.50 347.50,440.54 C354.91,440.58 359.36,442.66 363.98,448.23 C367.13,452.01 367.47,453.03 367.48,458.61 C367.50,463.94 367.08,465.38 364.43,469.04 C362.74,471.37 359.37,474.34 356.95,475.64 ZM 119.60 511.40 L 115.71 507.97 C109.34,502.37 108.71,498.87 109.15,472.00 C109.48,451.62 109.62,450.31 111.80,446.80 C118.19,436.53 133.08,436.13 139.65,446.04 C141.66,449.08 142.22,450.04 142.53,457.60 C142.19,455.07 141.60,453.65 140.56,451.50 C137.03,444.23 134.89,441.99 130.45,440.95 C124.07,439.45 118.40,440.74 115.34,444.36 C110.53,450.07 110.26,451.87 110.62,476.00 C110.80,488.38 111.21,499.62 111.53,501.00 C112.13,503.62 118.61,510.00 120.68,510.00 C121.34,510.00 122.16,510.45 122.50,511.00 C122.59,511.15 121.62,511.28 119.60,511.40 ZM 58.75 480.03 C61.09,478.97 63.00,477.62 63.00,477.04 C63.00,476.46 64.13,475.01 65.50,473.81 C68.50,471.20 69.87,466.75 69.97,459.12 C69.98,459.74 69.98,460.40 69.98,461.10 C70.00,471.56 68.66,474.98 62.82,479.30 C60.50,481.02 57.15,481.84 53.81,481.74 C55.19,481.52 56.73,480.95 58.75,480.03 ZM 268.48 501.97 C269.36,503.39 273.20,502.92 273.73,501.33 C274.23,499.79 270.08,498.52 268.79,499.81 C268.23,500.37 268.09,501.34 268.48,501.97 ZM 142.94 477.84 C142.96,485.28 142.81,492.03 142.54,494.72 C142.01,499.73 141.79,501.13 139.35,503.76 C142.51,499.75 142.88,494.89 142.94,477.84 ZM 69.83 454.93 C69.55,452.22 68.91,449.86 67.91,447.87 C69.07,449.99 69.60,451.70 69.83,454.93 ZM 134.07 508.90 L 130.82 512.00 L 130.62 512.00 ZM 47.98 480.50 C47.49,480.29 47.01,480.05 46.56,479.79 C44.01,478.31 42.22,476.84 40.99,474.87 C42.23,476.84 44.01,478.29 46.56,479.73 C47.06,480.02 47.53,480.27 47.98,480.50 Z" fill="rgb(138,248,250)"/>
<path d="M 0.00 0.00 L 512.00 0.00 L 512.00 512.00 L 130.82 512.00 L 134.07 508.90 L 135.91 507.25 C137.32,505.98 138.45,504.90 139.35,503.76 C141.79,501.13 142.01,499.73 142.54,494.72 C142.81,492.03 142.96,485.28 142.94,477.84 C142.94,476.93 142.94,475.98 142.95,475.00 C142.96,465.38 142.94,460.67 142.53,457.60 C142.22,450.04 141.66,449.08 139.65,446.04 C133.08,436.13 118.19,436.53 111.80,446.80 C109.62,450.31 109.48,451.62 109.15,472.00 C108.71,498.87 109.34,502.37 115.71,507.97 L 119.60 511.40 C112.63,511.80 93.16,512.00 61.56,512.00 L 0.00 512.00 ZM 382.85 268.25 C384.88,270.68 385.24,270.55 389.67,265.74 C406.31,247.69 416.00,221.67 416.00,195.05 C416.00,166.54 405.14,139.93 385.56,120.48 C378.59,113.56 376.86,112.05 369.92,106.85 C360.49,99.77 343.26,92.53 328.79,89.58 C318.92,87.56 297.90,87.53 288.51,89.52 C261.08,95.33 238.65,109.29 222.85,130.39 C215.92,139.66 210.42,150.05 211.27,152.27 C211.59,153.10 214.59,154.84 217.93,156.13 C218.07,156.19 218.21,156.25 218.35,156.30 C214.34,154.86 208.90,153.46 204.72,152.98 C200.44,152.48 196.50,151.81 195.95,151.47 C195.41,151.14 188.11,150.74 179.73,150.60 C162.70,150.31 156.56,151.40 144.68,156.82 C117.69,169.15 96.57,195.09 92.27,221.23 C91.97,223.06 91.68,225.52 91.43,228.25 C90.53,234.45 90.13,240.97 90.28,247.31 L 90.50 256.13 L 86.46 259.90 C82.57,263.54 82.11,263.70 73.46,264.27 C56.57,265.39 38.79,274.35 27.12,287.60 C16.44,299.73 11.61,310.67 9.06,328.50 C7.26,341.02 11.91,359.28 20.16,372.20 C28.51,385.25 40.39,395.08 53.62,400.26 L 53.62 400.26 C59.00,402.47 64.67,404.03 70.53,404.89 C78.67,406.07 287.01,406.19 304.50,405.02 C312.96,404.45 321.44,403.25 325.93,401.99 C355.75,393.58 378.99,371.25 388.87,341.50 C395.96,320.16 395.45,297.82 387.53,282.63 C385.59,278.90 384.00,275.18 384.00,274.35 C384.00,272.08 376.22,259.22 372.11,254.71 C362.28,243.89 354.18,237.11 349.25,235.57 C348.01,235.18 347.00,234.48 347.00,234.02 C347.00,232.63 337.95,228.00 335.24,228.00 C333.86,228.00 331.33,227.17 329.62,226.16 C327.90,225.14 323.80,223.77 320.50,223.12 C318.98,222.81 317.18,222.44 315.45,222.08 C318.16,222.58 321.80,223.19 324.00,223.52 C342.61,226.30 366.64,243.26 378.54,262.00 C380.11,264.48 382.05,267.29 382.85,268.25 ZM 308.57 0.00 C303.73,0.00 302.72,0.39 298.99,3.74 C292.94,9.18 292.00,12.22 292.02,26.37 C292.03,37.09 292.30,38.96 294.28,42.47 C295.52,44.65 298.05,47.47 299.91,48.72 C303.98,51.46 311.30,51.78 316.23,49.43 C318.04,48.56 320.64,46.20 322.01,44.18 C324.27,40.83 324.53,39.36 324.84,28.01 C325.20,14.37 324.34,9.84 320.65,6.00 C315.58,0.73 314.11,0.00 308.57,0.00 ZM 414.59 96.55 C418.50,98.28 424.35,98.30 428.28,96.62 C432.56,94.79 447.89,79.51 449.63,75.35 C452.70,67.98 450.33,59.48 444.10,55.58 C434.92,49.82 429.83,51.21 417.90,62.71 C407.67,72.57 406.00,75.34 406.00,82.48 C406.00,86.59 406.58,88.42 408.84,91.46 C410.41,93.56 413.00,95.85 414.59,96.55 ZM 465.84 211.02 C467.85,211.39 474.60,211.55 480.82,211.38 C495.94,210.97 499.94,208.61 503.03,198.31 C504.59,193.09 503.18,188.54 498.39,183.31 L 494.90 179.50 L 462.39 179.50 L 458.94 182.37 C454.32,186.23 452.64,189.60 452.63,195.07 C452.61,203.00 458.06,209.59 465.84,211.02 ZM 188.50 96.85 C191.31,98.38 198.44,98.26 202.38,96.61 C208.94,93.87 212.92,85.12 210.94,77.78 C209.41,72.11 193.42,55.49 188.06,54.00 C182.27,52.39 177.57,52.82 173.92,55.27 C166.68,60.16 164.24,67.62 167.43,75.13 C168.85,78.46 184.64,94.74 188.50,96.85 ZM 283.28 506.95 C291.86,502.94 295.50,498.00 295.50,490.35 C295.50,485.98 295.10,484.76 293.25,483.46 C292.00,482.59 291.00,480.84 291.00,479.54 C291.00,477.86 289.70,476.33 286.42,474.16 C277.77,468.42 271.40,468.76 264.26,475.31 C255.02,483.81 254.46,492.62 262.54,502.49 C266.00,506.70 269.01,508.50 274.00,509.32 C275.38,509.54 276.56,509.79 276.64,509.86 C276.71,509.94 279.70,508.63 283.28,506.95 ZM 209.50 478.90 C215.12,477.38 220.56,471.80 222.53,465.53 C224.13,460.46 224.12,460.33 221.58,455.55 C220.16,452.88 219.00,450.17 219.00,449.53 C219.00,446.14 209.71,441.57 203.29,441.82 C196.86,442.06 188.37,448.22 186.06,454.32 C184.68,457.98 184.70,466.57 186.10,469.18 C187.71,472.19 193.81,477.33 197.39,478.67 C201.40,480.19 204.54,480.25 209.50,478.90 ZM 356.95 475.64 C359.37,474.34 362.74,471.37 364.43,469.04 C367.08,465.38 367.50,463.94 367.48,458.61 C367.47,453.03 367.13,452.01 363.98,448.23 C359.36,442.66 354.91,440.58 347.50,440.54 C339.99,440.50 334.87,443.38 331.81,449.35 C327.53,457.73 330.28,471.46 336.71,473.79 C338.25,474.35 340.40,475.51 341.50,476.37 C344.53,478.74 351.78,478.40 356.95,475.64 ZM 47.98 480.50 C50.23,481.64 51.86,482.04 53.81,481.74 C57.15,481.84 60.50,481.02 62.82,479.30 C68.66,474.98 70.00,471.56 69.98,461.10 C69.98,460.40 69.98,459.74 69.97,459.12 C69.98,458.75 69.98,458.38 69.98,458.00 C69.98,456.93 69.93,455.91 69.83,454.93 C69.60,451.70 69.07,449.99 67.91,447.87 C65.37,442.81 60.56,440.12 53.70,440.05 C47.88,439.99 43.93,441.89 40.83,446.23 C38.75,449.16 38.50,450.61 38.50,460.00 C38.50,465.65 38.83,469.50 39.82,472.37 C39.91,472.65 40.02,472.92 40.13,473.18 C40.34,473.69 40.58,474.17 40.84,474.62 C40.89,474.70 40.94,474.79 40.99,474.87 C42.22,476.84 44.01,478.31 46.56,479.79 C47.01,480.05 47.49,480.29 47.98,480.50 ZM 268.48 501.97 C268.09,501.34 268.23,500.37 268.79,499.81 C270.08,498.52 274.23,499.79 273.73,501.33 C273.20,502.92 269.36,503.39 268.48,501.97 ZM 288.09 221.36 C283.39,222.11 281.48,222.03 279.15,221.06 C281.28,221.93 283.23,222.03 288.09,221.36 ZM 223.32 158.63 C223.75,158.91 224.00,159.12 224.00,159.24 C224.00,159.38 224.04,159.50 224.11,159.61 C223.99,159.49 223.89,159.36 223.83,159.21 C223.76,159.04 223.58,158.84 223.32,158.63 ZM 233.30 164.96 C237.05,167.50 241.04,170.41 243.00,172.18 C241.09,170.46 237.07,167.52 233.30,164.96 Z" fill="rgb(253,254,254)"/>
<path d="M 382.85 268.25 C382.05,267.29 380.11,264.48 378.54,262.00 C366.64,243.26 342.61,226.30 324.00,223.52 C321.52,223.15 317.25,222.42 314.50,221.90 C304.31,219.97 298.48,219.76 290.41,221.01 C283.72,222.05 281.55,222.06 279.08,221.03 C275.21,219.43 269.00,212.63 269.00,209.99 C269.00,208.04 266.66,202.80 262.00,194.32 C259.58,189.92 248.96,177.55 243.00,172.18 C238.95,168.54 226.28,160.00 224.92,160.00 C224.41,160.00 224.00,159.66 224.00,159.24 C224.00,158.83 221.27,157.43 217.93,156.13 C214.59,154.84 211.59,153.10 211.27,152.27 C210.42,150.05 215.92,139.66 222.85,130.39 C238.65,109.29 261.08,95.33 288.51,89.52 C297.90,87.53 318.92,87.56 328.79,89.58 C343.26,92.53 360.49,99.77 369.92,106.85 C376.86,112.05 378.59,113.56 385.56,120.48 C405.14,139.93 416.00,166.54 416.00,195.05 C416.00,221.67 406.31,247.69 389.67,265.74 C385.24,270.55 384.88,270.68 382.85,268.25 ZM 465.84 211.02 C458.06,209.59 452.61,203.00 452.63,195.07 C452.64,189.60 454.32,186.23 458.94,182.37 L 462.39 179.50 L 478.64 179.50 L 494.90 179.50 L 498.39 183.31 C503.18,188.54 504.59,193.09 503.03,198.31 C499.94,208.61 495.94,210.97 480.82,211.38 C474.60,211.55 467.85,211.39 465.84,211.02 ZM 188.50 96.85 C184.64,94.74 168.85,78.46 167.43,75.13 C164.24,67.62 166.68,60.16 173.92,55.27 C177.57,52.82 182.27,52.39 188.06,54.00 C193.42,55.49 209.41,72.11 210.94,77.78 C212.92,85.12 208.94,93.87 202.38,96.61 C198.44,98.26 191.31,98.38 188.50,96.85 ZM 414.59 96.55 C413.00,95.85 410.41,93.56 408.84,91.46 C406.58,88.42 406.00,86.59 406.00,82.48 C406.00,75.34 407.67,72.57 417.90,62.71 C429.83,51.21 434.92,49.82 444.10,55.58 C450.33,59.48 452.70,67.98 449.63,75.35 C447.89,79.51 432.56,94.79 428.28,96.62 C424.35,98.30 418.50,98.28 414.59,96.55 ZM 299.91 48.72 C298.05,47.47 295.52,44.65 294.28,42.47 C292.30,38.96 292.03,37.09 292.02,26.37 C292.00,12.22 292.94,9.18 298.99,3.74 C302.72,0.39 303.73,-0.00 308.57,-0.00 C314.11,-0.00 315.58,0.73 320.65,6.00 C324.34,9.84 325.20,14.37 324.84,28.01 C324.53,39.36 324.27,40.83 322.01,44.18 C320.64,46.20 318.04,48.56 316.23,49.43 C311.30,51.78 303.98,51.46 299.91,48.72 Z" fill="rgb(253,233,129)"/>
</g>
</svg>